<!-- Insignia BRUTAL STUDIOS, version para fondo claro: circulo blanco con filo, letras en negro.
     Vector original de la marca, con sus grietas. Se elige al entrar, y esa
     eleccion fija el tema de toda la app.

     El circulo blanco del fondo NO es decorativo: los dos originales vienen con
     relleno negro sobre TRANSPARENTE. En la version negra las letras van caladas,
     asi que sin ese fondo dejarian ver la pantalla —oscura— y el logo se leeria al
     reves. -->
<svg xmlns="http://www.w3.org/2000/svg" width="200" height="200" viewBox="129 81 573 573">
<circle cx="416" cy="367" r="285" fill="#FFFFFF"/>
<path d="M 397 81 L 396 82 L 386 82 L 385 83 L 377 83 L 376 84 L 370 84 L 369 85 L 365 85 L 364 86 L 359 86 L 358 87 L 354 87 L 353 88 L 350 88 L 349 89 L 346 89 L 345 90 L 342 90 L 341 91 L 338 91 L 337 92 L 335 92 L 334 93 L 332 93 L 331 94 L 328 94 L 327 95 L 325 95 L 324 96 L 322 96 L 321 97 L 319 97 L 318 98 L 317 98 L 316 99 L 314 99 L 313 100 L 311 100 L 310 101 L 309 101 L 308 102 L 307 102 L 306 103 L 304 103 L 303 104 L 302 104 L 301 105 L 300 105 L 299 106 L 297 106 L 296 107 L 295 107 L 294 108 L 293 108 L 292 109 L 291 109 L 290 110 L 289 110 L 288 111 L 287 111 L 286 112 L 285 112 L 284 113 L 283 113 L 282 114 L 281 114 L 280 115 L 279 115 L 278 116 L 277 116 L 275 118 L 274 118 L 273 119 L 272 119 L 271 120 L 270 120 L 268 122 L 267 122 L 266 123 L 265 123 L 263 125 L 262 125 L 260 127 L 259 127 L 257 129 L 256 129 L 254 131 L 253 131 L 251 133 L 250 133 L 247 136 L 246 136 L 244 138 L 243 138 L 239 142 L 238 142 L 235 145 L 234 145 L 228 151 L 227 151 L 216 162 L 215 162 L 212 165 L 212 166 L 199 179 L 199 180 L 194 185 L 194 186 L 190 190 L 190 191 L 187 194 L 187 195 L 184 198 L 184 199 L 181 202 L 181 203 L 179 205 L 179 206 L 177 208 L 177 209 L 175 211 L 175 212 L 173 214 L 173 215 L 172 216 L 172 217 L 170 219 L 170 220 L 169 221 L 169 222 L 167 224 L 167 225 L 166 226 L 166 227 L 165 228 L 165 229 L 163 231 L 163 232 L 162 233 L 162 234 L 161 235 L 161 236 L 160 237 L 160 238 L 159 239 L 159 240 L 158 241 L 158 242 L 157 243 L 157 244 L 156 245 L 156 246 L 155 247 L 155 249 L 154 250 L 154 251 L 153 252 L 153 253 L 152 254 L 152 255 L 151 256 L 151 258 L 150 259 L 150 260 L 149 261 L 149 263 L 148 264 L 148 265 L 147 266 L 147 268 L 146 269 L 146 271 L 145 272 L 145 274 L 144 275 L 144 277 L 143 278 L 143 280 L 142 281 L 142 283 L 141 284 L 141 286 L 140 287 L 140 290 L 139 291 L 139 294 L 138 295 L 138 298 L 137 299 L 137 302 L 136 303 L 136 306 L 135 307 L 135 311 L 134 312 L 134 317 L 133 318 L 133 323 L 132 324 L 132 330 L 131 331 L 131 339 L 130 340 L 130 352 L 129 353 L 129 382 L 130 383 L 130 396 L 131 397 L 131 404 L 132 405 L 132 412 L 133 413 L 133 418 L 134 419 L 134 423 L 135 424 L 135 428 L 136 429 L 136 432 L 137 433 L 137 437 L 138 438 L 138 440 L 139 441 L 139 444 L 140 445 L 140 448 L 141 449 L 141 451 L 142 452 L 142 454 L 143 455 L 143 457 L 144 458 L 144 460 L 145 461 L 145 463 L 146 464 L 146 466 L 147 467 L 147 469 L 148 470 L 148 471 L 149 472 L 149 474 L 150 475 L 150 476 L 151 477 L 151 479 L 152 480 L 152 481 L 153 482 L 153 483 L 154 484 L 154 486 L 155 487 L 155 488 L 156 489 L 156 490 L 157 491 L 157 492 L 158 493 L 158 494 L 159 495 L 159 496 L 160 497 L 160 498 L 161 499 L 161 500 L 162 501 L 162 502 L 163 503 L 163 504 L 164 505 L 164 506 L 166 508 L 166 509 L 167 510 L 167 511 L 168 512 L 168 513 L 170 515 L 170 516 L 171 517 L 171 518 L 173 520 L 173 521 L 175 523 L 175 524 L 177 526 L 177 527 L 179 529 L 179 530 L 181 532 L 181 533 L 183 535 L 183 536 L 186 539 L 186 540 L 189 543 L 189 544 L 193 548 L 193 549 L 198 554 L 198 555 L 207 564 L 207 565 L 218 576 L 219 576 L 228 585 L 229 585 L 234 590 L 235 590 L 239 594 L 240 594 L 243 597 L 244 597 L 247 600 L 248 600 L 251 603 L 252 603 L 254 605 L 255 605 L 257 607 L 258 607 L 260 609 L 261 609 L 262 610 L 263 610 L 265 612 L 266 612 L 268 614 L 269 614 L 270 615 L 271 615 L 272 616 L 273 616 L 275 618 L 276 618 L 277 619 L 278 619 L 279 620 L 280 620 L 281 621 L 282 621 L 283 622 L 284 622 L 285 623 L 286 623 L 288 625 L 290 625 L 291 626 L 292 626 L 293 627 L 294 627 L 295 628 L 296 628 L 297 629 L 298 629 L 299 630 L 300 630 L 301 631 L 303 631 L 304 632 L 305 632 L 306 633 L 308 633 L 309 634 L 310 634 L 311 635 L 313 635 L 314 636 L 315 636 L 316 637 L 318 637 L 319 638 L 321 638 L 322 639 L 324 639 L 325 640 L 327 640 L 328 641 L 330 641 L 331 642 L 333 642 L 334 643 L 337 643 L 338 644 L 340 644 L 341 645 L 344 645 L 345 646 L 348 646 L 349 647 L 353 647 L 354 648 L 357 648 L 358 649 L 363 649 L 364 650 L 368 650 L 369 651 L 375 651 L 376 652 L 383 652 L 384 653 L 394 653 L 395 654 L 437 654 L 438 653 L 448 653 L 449 652 L 456 652 L 457 651 L 462 651 L 463 650 L 468 650 L 469 649 L 473 649 L 474 648 L 478 648 L 479 647 L 482 647 L 483 646 L 486 646 L 487 645 L 490 645 L 491 644 L 494 644 L 495 643 L 497 643 L 498 642 L 501 642 L 502 641 L 504 641 L 505 640 L 507 640 L 508 639 L 510 639 L 511 638 L 513 638 L 514 637 L 515 637 L 516 636 L 518 636 L 519 635 L 521 635 L 522 634 L 523 634 L 524 633 L 526 633 L 527 632 L 528 632 L 529 631 L 530 631 L 531 630 L 533 630 L 534 629 L 535 629 L 536 628 L 537 628 L 538 627 L 539 627 L 540 626 L 541 626 L 542 625 L 543 625 L 544 624 L 545 624 L 546 623 L 547 623 L 548 622 L 549 622 L 550 621 L 551 621 L 552 620 L 553 620 L 554 619 L 555 619 L 557 617 L 558 617 L 559 616 L 560 616 L 561 615 L 562 615 L 564 613 L 565 613 L 566 612 L 567 612 L 569 610 L 570 610 L 572 608 L 573 608 L 575 606 L 576 606 L 578 604 L 579 604 L 581 602 L 582 602 L 585 599 L 586 599 L 589 596 L 590 596 L 593 593 L 594 593 L 598 589 L 599 589 L 605 583 L 606 583 L 631 558 L 631 557 L 637 551 L 637 550 L 641 546 L 641 545 L 644 542 L 644 541 L 647 538 L 647 537 L 650 534 L 650 533 L 652 531 L 652 530 L 654 528 L 654 527 L 656 525 L 656 524 L 658 522 L 658 521 L 660 519 L 660 518 L 661 517 L 661 516 L 663 514 L 663 513 L 664 512 L 664 511 L 666 509 L 666 508 L 667 507 L 667 506 L 668 505 L 668 504 L 669 503 L 669 502 L 670 501 L 670 500 L 671 499 L 671 498 L 672 497 L 672 496 L 673 495 L 673 494 L 674 493 L 674 492 L 675 491 L 675 490 L 676 489 L 676 488 L 677 487 L 677 486 L 678 485 L 678 484 L 679 483 L 679 481 L 680 480 L 680 479 L 681 478 L 681 476 L 682 475 L 682 474 L 683 473 L 683 471 L 684 470 L 684 469 L 685 468 L 685 466 L 686 465 L 686 463 L 687 462 L 687 460 L 688 459 L 688 457 L 689 456 L 689 454 L 690 453 L 690 451 L 691 450 L 691 447 L 692 446 L 692 444 L 693 443 L 693 440 L 694 439 L 694 436 L 695 435 L 695 432 L 696 431 L 696 427 L 697 426 L 697 422 L 698 421 L 698 416 L 699 415 L 699 410 L 700 409 L 700 402 L 701 401 L 701 392 L 702 391 L 702 344 L 701 343 L 701 334 L 700 333 L 700 326 L 699 325 L 699 320 L 698 319 L 698 314 L 697 313 L 697 309 L 696 308 L 696 304 L 695 303 L 695 300 L 694 299 L 694 296 L 693 295 L 693 292 L 692 291 L 692 289 L 691 288 L 691 285 L 690 284 L 690 282 L 689 281 L 689 279 L 688 278 L 688 276 L 687 275 L 687 273 L 686 272 L 686 270 L 685 269 L 685 267 L 684 266 L 684 265 L 683 264 L 683 262 L 682 261 L 682 260 L 681 259 L 681 257 L 680 256 L 680 255 L 679 254 L 679 253 L 678 252 L 678 250 L 677 249 L 677 248 L 676 247 L 676 246 L 675 245 L 675 244 L 674 243 L 674 242 L 673 241 L 673 240 L 672 239 L 672 238 L 671 237 L 671 236 L 670 235 L 670 234 L 669 233 L 669 232 L 668 231 L 668 230 L 667 229 L 667 228 L 665 226 L 665 225 L 664 224 L 664 223 L 663 222 L 663 221 L 661 219 L 661 218 L 659 216 L 659 215 L 658 214 L 658 213 L 656 211 L 656 210 L 654 208 L 654 207 L 652 205 L 652 204 L 649 201 L 649 200 L 647 198 L 647 197 L 644 194 L 644 193 L 640 189 L 640 188 L 636 184 L 636 183 L 630 177 L 630 176 L 608 154 L 607 154 L 600 147 L 599 147 L 595 143 L 594 143 L 591 140 L 590 140 L 587 137 L 586 137 L 583 134 L 582 134 L 580 132 L 579 132 L 576 129 L 575 129 L 573 127 L 572 127 L 571 126 L 570 126 L 568 124 L 567 124 L 565 122 L 564 122 L 563 121 L 562 121 L 560 119 L 559 119 L 558 118 L 557 118 L 556 117 L 555 117 L 554 116 L 553 116 L 551 114 L 550 114 L 549 113 L 548 113 L 547 112 L 546 112 L 545 111 L 544 111 L 543 110 L 542 110 L 541 109 L 540 109 L 539 108 L 538 108 L 537 107 L 535 107 L 534 106 L 533 106 L 532 105 L 531 105 L 530 104 L 529 104 L 528 103 L 526 103 L 525 102 L 524 102 L 523 101 L 521 101 L 520 100 L 519 100 L 518 99 L 516 99 L 515 98 L 513 98 L 512 97 L 510 97 L 509 96 L 507 96 L 506 95 L 504 95 L 503 94 L 501 94 L 500 93 L 498 93 L 497 92 L 494 92 L 493 91 L 491 91 L 490 90 L 487 90 L 486 89 L 483 89 L 482 88 L 478 88 L 477 87 L 473 87 L 472 86 L 468 86 L 467 85 L 462 85 L 461 84 L 455 84 L 454 83 L 447 83 L 446 82 L 435 82 L 434 81 Z M 399 84 L 433 84 L 434 85 L 444 85 L 445 86 L 453 86 L 454 87 L 460 87 L 461 88 L 465 88 L 466 89 L 471 89 L 472 90 L 475 90 L 476 91 L 480 91 L 481 92 L 484 92 L 485 93 L 488 93 L 489 94 L 491 94 L 492 95 L 495 95 L 496 96 L 498 96 L 499 97 L 501 97 L 502 98 L 504 98 L 505 99 L 507 99 L 508 100 L 510 100 L 511 101 L 513 101 L 514 102 L 516 102 L 517 103 L 518 103 L 519 104 L 521 104 L 522 105 L 523 105 L 524 106 L 526 106 L 527 107 L 528 107 L 529 108 L 530 108 L 531 109 L 532 109 L 533 110 L 535 110 L 536 111 L 537 111 L 538 112 L 539 112 L 540 113 L 541 113 L 542 114 L 543 114 L 544 115 L 545 115 L 546 116 L 547 116 L 548 117 L 549 117 L 551 119 L 552 119 L 553 120 L 554 120 L 555 121 L 556 121 L 558 123 L 559 123 L 560 124 L 561 124 L 563 126 L 564 126 L 565 127 L 566 127 L 568 129 L 569 129 L 571 131 L 572 131 L 574 133 L 575 133 L 577 135 L 578 135 L 580 137 L 581 137 L 584 140 L 585 140 L 588 143 L 589 143 L 593 147 L 594 147 L 599 152 L 600 152 L 609 161 L 610 161 L 622 173 L 622 174 L 631 183 L 631 184 L 636 189 L 636 190 L 640 194 L 640 195 L 643 198 L 643 199 L 646 202 L 646 203 L 648 205 L 648 206 L 651 209 L 651 210 L 653 212 L 653 213 L 654 214 L 654 215 L 656 217 L 656 218 L 658 220 L 658 221 L 659 222 L 659 223 L 661 225 L 661 226 L 662 227 L 662 228 L 664 230 L 664 231 L 665 232 L 665 233 L 666 234 L 666 235 L 667 236 L 667 237 L 668 238 L 668 239 L 669 240 L 669 241 L 670 242 L 670 243 L 671 244 L 671 245 L 672 246 L 672 247 L 673 248 L 673 249 L 674 250 L 674 251 L 675 252 L 675 254 L 676 255 L 676 256 L 677 257 L 677 258 L 678 259 L 678 261 L 679 262 L 679 263 L 680 264 L 680 266 L 681 267 L 681 268 L 682 269 L 682 271 L 683 272 L 683 274 L 684 275 L 684 277 L 685 278 L 685 280 L 686 281 L 686 283 L 687 284 L 687 286 L 688 287 L 688 290 L 689 291 L 689 293 L 690 294 L 690 297 L 691 298 L 691 301 L 692 302 L 692 305 L 693 306 L 693 310 L 694 311 L 694 315 L 695 316 L 695 320 L 696 321 L 696 327 L 697 328 L 697 334 L 698 335 L 698 344 L 699 345 L 699 390 L 698 391 L 698 400 L 697 401 L 697 407 L 696 408 L 696 414 L 695 415 L 695 419 L 694 420 L 694 424 L 693 425 L 693 429 L 692 430 L 692 433 L 691 434 L 691 437 L 690 438 L 690 441 L 689 442 L 689 445 L 688 446 L 688 448 L 687 449 L 687 451 L 686 452 L 686 454 L 685 455 L 685 457 L 684 458 L 684 460 L 683 461 L 683 463 L 682 464 L 682 466 L 681 467 L 681 468 L 680 469 L 680 471 L 679 472 L 679 474 L 678 475 L 678 476 L 677 477 L 677 478 L 676 479 L 676 481 L 675 482 L 675 483 L 674 484 L 674 485 L 673 486 L 673 487 L 672 488 L 672 489 L 671 490 L 671 491 L 670 492 L 670 493 L 669 494 L 669 495 L 668 496 L 668 497 L 667 498 L 667 499 L 666 500 L 666 501 L 665 502 L 665 503 L 664 504 L 664 505 L 662 507 L 662 508 L 661 509 L 661 510 L 660 511 L 660 512 L 658 514 L 658 515 L 657 516 L 657 517 L 655 519 L 655 520 L 653 522 L 653 523 L 651 525 L 651 526 L 649 528 L 649 529 L 646 532 L 646 533 L 644 535 L 644 536 L 641 539 L 641 540 L 637 544 L 637 545 L 632 550 L 632 551 L 625 558 L 625 559 L 608 576 L 607 576 L 599 584 L 598 584 L 593 589 L 592 589 L 589 592 L 588 592 L 585 595 L 584 595 L 581 598 L 580 598 L 577 601 L 576 601 L 574 603 L 573 603 L 571 605 L 570 605 L 568 607 L 567 607 L 566 608 L 565 608 L 563 610 L 562 610 L 561 611 L 560 611 L 558 613 L 557 613 L 556 614 L 555 614 L 554 615 L 553 615 L 551 617 L 550 617 L 549 618 L 548 618 L 547 619 L 546 619 L 545 620 L 544 620 L 543 621 L 542 621 L 541 622 L 540 622 L 539 623 L 538 623 L 537 624 L 536 624 L 535 625 L 534 625 L 533 626 L 532 626 L 531 627 L 529 627 L 528 628 L 527 628 L 526 629 L 525 629 L 524 630 L 522 630 L 521 631 L 520 631 L 519 632 L 517 632 L 516 633 L 514 633 L 513 634 L 512 634 L 511 635 L 509 635 L 508 636 L 506 636 L 505 637 L 503 637 L 502 638 L 500 638 L 499 639 L 497 639 L 496 640 L 493 640 L 492 641 L 489 641 L 488 642 L 486 642 L 485 643 L 482 643 L 481 644 L 477 644 L 476 645 L 473 645 L 472 646 L 467 646 L 466 647 L 462 647 L 461 648 L 455 648 L 454 649 L 447 649 L 446 650 L 436 650 L 435 651 L 396 651 L 395 650 L 386 650 L 385 649 L 378 649 L 377 648 L 371 648 L 370 647 L 365 647 L 364 646 L 360 646 L 359 645 L 355 645 L 354 644 L 351 644 L 350 643 L 347 643 L 346 642 L 343 642 L 342 641 L 340 641 L 339 640 L 336 640 L 335 639 L 333 639 L 332 638 L 330 638 L 329 637 L 327 637 L 326 636 L 324 636 L 323 635 L 321 635 L 320 634 L 318 634 L 317 633 L 316 633 L 315 632 L 313 632 L 312 631 L 310 631 L 309 630 L 308 630 L 307 629 L 306 629 L 305 628 L 303 628 L 302 627 L 301 627 L 300 626 L 299 626 L 298 625 L 297 625 L 296 624 L 295 624 L 294 623 L 293 623 L 292 622 L 291 622 L 290 621 L 289 621 L 288 620 L 287 620 L 286 619 L 285 619 L 284 618 L 283 618 L 282 617 L 281 617 L 280 616 L 279 616 L 278 615 L 277 615 L 275 613 L 274 613 L 273 612 L 272 612 L 270 610 L 269 610 L 268 609 L 267 609 L 265 607 L 264 607 L 262 605 L 261 605 L 259 603 L 258 603 L 256 601 L 255 601 L 253 599 L 252 599 L 249 596 L 248 596 L 246 594 L 245 594 L 241 590 L 240 590 L 236 586 L 235 586 L 229 580 L 228 580 L 204 556 L 204 555 L 198 549 L 198 548 L 193 543 L 193 542 L 190 539 L 190 538 L 187 535 L 187 534 L 184 531 L 184 530 L 182 528 L 182 527 L 180 525 L 180 524 L 178 522 L 178 521 L 176 519 L 176 518 L 174 516 L 174 515 L 173 514 L 173 513 L 171 511 L 171 510 L 170 509 L 170 508 L 169 507 L 169 506 L 167 504 L 167 503 L 166 502 L 166 501 L 165 500 L 165 499 L 164 498 L 164 497 L 163 496 L 163 495 L 162 494 L 162 493 L 161 492 L 161 491 L 160 490 L 160 489 L 159 488 L 159 487 L 158 486 L 158 485 L 157 484 L 157 482 L 156 481 L 156 480 L 155 479 L 155 478 L 154 477 L 154 475 L 153 474 L 153 473 L 152 472 L 152 470 L 151 469 L 151 468 L 150 467 L 150 465 L 149 464 L 149 462 L 148 461 L 148 460 L 147 459 L 147 457 L 146 456 L 146 453 L 145 452 L 145 450 L 144 449 L 144 447 L 143 446 L 143 443 L 142 442 L 142 440 L 141 439 L 141 436 L 140 435 L 140 432 L 139 431 L 139 427 L 138 426 L 138 422 L 137 421 L 137 417 L 136 416 L 136 411 L 135 410 L 135 404 L 134 403 L 134 395 L 133 394 L 133 381 L 132 380 L 132 355 L 133 354 L 133 341 L 134 340 L 134 332 L 135 331 L 135 325 L 136 324 L 136 319 L 137 318 L 137 314 L 138 313 L 138 309 L 139 308 L 139 305 L 140 304 L 140 300 L 141 299 L 141 296 L 142 295 L 142 293 L 143 292 L 143 289 L 144 288 L 144 286 L 145 285 L 145 283 L 146 282 L 146 280 L 147 279 L 147 277 L 148 276 L 148 274 L 149 273 L 149 271 L 150 270 L 150 268 L 151 267 L 151 266 L 152 265 L 152 263 L 153 262 L 153 261 L 154 260 L 154 258 L 155 257 L 155 256 L 156 255 L 156 254 L 157 253 L 157 252 L 158 251 L 158 249 L 159 248 L 159 247 L 160 246 L 160 245 L 161 244 L 161 243 L 162 242 L 162 241 L 163 240 L 163 239 L 164 238 L 164 237 L 165 236 L 165 235 L 166 234 L 166 233 L 168 231 L 168 230 L 169 229 L 169 228 L 170 227 L 170 226 L 172 224 L 172 223 L 173 222 L 173 221 L 175 219 L 175 218 L 176 217 L 176 216 L 178 214 L 178 213 L 180 211 L 180 210 L 182 208 L 182 207 L 185 204 L 185 203 L 187 201 L 187 200 L 190 197 L 190 196 L 194 192 L 194 191 L 198 187 L 198 186 L 205 179 L 205 178 L 226 157 L 227 157 L 234 150 L 235 150 L 239 146 L 240 146 L 244 142 L 245 142 L 248 139 L 249 139 L 252 136 L 253 136 L 255 134 L 256 134 L 258 132 L 259 132 L 261 130 L 262 130 L 264 128 L 265 128 L 266 127 L 267 127 L 269 125 L 270 125 L 272 123 L 273 123 L 274 122 L 275 122 L 276 121 L 277 121 L 279 119 L 280 119 L 281 118 L 282 118 L 283 117 L 284 117 L 285 116 L 286 116 L 287 115 L 288 115 L 289 114 L 290 114 L 291 113 L 292 113 L 293 112 L 294 112 L 295 111 L 296 111 L 297 110 L 298 110 L 299 109 L 300 109 L 301 108 L 303 108 L 304 107 L 305 107 L 306 106 L 307 106 L 308 105 L 310 105 L 311 104 L 312 104 L 313 103 L 315 103 L 316 102 L 318 102 L 319 101 L 320 101 L 321 100 L 323 100 L 324 99 L 326 99 L 327 98 L 329 98 L 330 97 L 332 97 L 333 96 L 336 96 L 337 95 L 339 95 L 340 94 L 343 94 L 344 93 L 347 93 L 348 92 L 351 92 L 352 91 L 355 91 L 356 90 L 360 90 L 361 89 L 365 89 L 366 88 L 371 88 L 372 87 L 378 87 L 379 86 L 386 86 L 387 85 L 398 85 Z M 454 422 L 454 513 L 562 513 L 562 468 L 504 468 L 503 467 L 503 423 L 502 424 L 500 424 L 499 425 L 498 425 L 497 426 L 496 426 L 495 427 L 494 427 L 493 428 L 492 428 L 491 429 L 490 429 L 488 431 L 487 431 L 487 443 L 488 444 L 488 445 L 489 446 L 489 447 L 490 448 L 490 453 L 489 454 L 489 455 L 490 456 L 490 458 L 491 459 L 491 467 L 493 469 L 493 470 L 498 475 L 498 476 L 503 481 L 503 488 L 504 489 L 504 490 L 505 491 L 505 492 L 507 494 L 507 495 L 508 496 L 508 500 L 510 502 L 510 505 L 511 506 L 511 508 L 510 509 L 508 507 L 508 505 L 507 504 L 507 503 L 506 502 L 506 499 L 505 498 L 505 497 L 504 496 L 504 495 L 503 494 L 503 493 L 502 492 L 502 491 L 501 490 L 501 489 L 500 488 L 500 483 L 490 473 L 490 472 L 489 471 L 489 470 L 488 469 L 488 468 L 487 467 L 487 456 L 486 455 L 486 446 L 485 445 L 485 444 L 484 443 L 484 437 L 483 436 L 483 429 L 482 428 L 481 428 L 480 427 L 479 427 L 478 426 L 477 426 L 475 424 L 474 424 L 473 423 L 469 423 L 468 422 Z M 376 412 L 375 413 L 375 417 L 374 418 L 374 423 L 373 424 L 373 429 L 372 430 L 372 434 L 371 435 L 371 440 L 370 441 L 370 446 L 369 447 L 369 451 L 368 452 L 368 457 L 367 458 L 367 463 L 366 464 L 366 466 L 367 467 L 365 469 L 365 474 L 364 475 L 364 480 L 363 481 L 363 485 L 362 486 L 362 491 L 361 492 L 361 497 L 360 498 L 360 502 L 359 503 L 359 508 L 358 509 L 358 513 L 399 513 L 399 493 L 400 492 L 408 492 L 409 493 L 409 511 L 410 512 L 410 513 L 451 513 L 450 512 L 450 507 L 449 506 L 449 502 L 448 501 L 448 496 L 447 495 L 447 491 L 446 490 L 446 485 L 445 484 L 445 480 L 444 479 L 444 474 L 443 473 L 443 469 L 442 468 L 442 464 L 441 463 L 441 458 L 440 457 L 440 453 L 439 452 L 439 447 L 438 446 L 438 442 L 437 441 L 437 436 L 436 435 L 436 431 L 435 430 L 435 425 L 434 424 L 434 420 L 433 419 L 433 415 L 432 414 L 432 412 Z M 426 480 L 427 479 L 428 480 L 427 481 Z M 415 480 L 416 479 L 422 479 L 423 480 L 422 481 L 416 481 Z M 412 480 L 413 479 L 414 480 L 413 481 Z M 411 479 L 412 478 L 413 479 L 412 480 Z M 410 478 L 411 477 L 412 478 L 411 479 Z M 409 477 L 410 476 L 411 477 L 410 478 Z M 408 476 L 409 475 L 410 476 L 409 477 Z M 404 475 L 405 474 L 408 474 L 409 475 L 408 476 L 405 476 Z M 388 475 L 389 474 L 390 475 L 389 476 Z M 384 475 L 385 474 L 386 474 L 387 475 L 386 476 L 385 476 Z M 395 474 L 396 473 L 402 473 L 403 474 L 402 475 L 396 475 Z M 380 473 L 381 472 L 382 473 L 381 474 Z M 372 470 L 373 469 L 375 469 L 376 470 L 378 470 L 379 471 L 380 471 L 381 472 L 380 473 L 378 473 L 377 472 L 375 472 L 374 471 L 373 471 Z M 369 469 L 370 468 L 372 468 L 373 469 L 372 470 L 370 470 Z M 366 468 L 367 467 L 369 467 L 370 468 L 369 469 L 367 469 Z M 403 442 L 405 442 L 406 443 L 406 444 L 407 445 L 407 461 L 406 462 L 401 462 L 400 461 L 400 452 L 401 451 L 401 444 Z M 454 361 L 454 417 L 464 417 L 465 418 L 472 418 L 474 420 L 475 420 L 477 422 L 478 422 L 480 424 L 481 424 L 483 426 L 490 426 L 491 425 L 492 425 L 493 424 L 494 424 L 495 423 L 496 423 L 497 422 L 499 422 L 500 421 L 501 421 L 502 420 L 503 420 L 503 382 L 504 381 L 504 361 Z M 296 513 L 353 513 L 353 502 L 352 501 L 352 485 L 351 484 L 351 469 L 350 468 L 350 452 L 349 451 L 349 436 L 348 435 L 348 419 L 347 418 L 347 406 L 348 405 L 368 405 L 369 406 L 417 406 L 418 407 L 437 407 L 437 361 L 323 361 L 323 372 L 321 374 L 320 373 L 320 363 L 321 362 L 321 361 L 270 361 L 270 406 L 281 406 L 282 405 L 300 405 L 301 406 L 301 421 L 300 422 L 300 435 L 301 434 L 303 434 L 304 433 L 307 433 L 308 432 L 310 432 L 311 431 L 313 431 L 314 430 L 317 430 L 318 429 L 320 429 L 321 428 L 321 421 L 322 420 L 323 421 L 323 430 L 321 432 L 318 432 L 317 433 L 315 433 L 314 434 L 311 434 L 310 435 L 308 435 L 307 436 L 304 436 L 303 437 L 301 437 L 300 438 L 300 440 L 299 441 L 299 458 L 298 459 L 298 476 L 297 477 L 297 494 L 296 495 Z M 333 438 L 334 437 L 335 437 L 336 438 L 340 438 L 341 439 L 344 439 L 345 440 L 348 440 L 349 441 L 349 442 L 348 443 L 347 443 L 346 442 L 343 442 L 342 441 L 338 441 L 337 440 L 335 440 Z M 326 433 L 327 432 L 329 432 L 334 437 L 333 438 L 332 438 L 330 436 L 329 436 Z M 324 432 L 325 431 L 326 431 L 327 432 L 326 433 L 325 433 Z M 323 431 L 324 430 L 325 431 L 324 432 Z M 321 417 L 322 418 L 322 420 L 321 421 L 320 420 L 320 418 Z M 319 416 L 320 415 L 321 416 L 320 417 Z M 320 414 L 321 413 L 322 414 L 321 415 Z M 322 408 L 323 409 L 323 413 L 322 414 L 321 413 L 321 409 Z M 322 407 L 323 406 L 324 407 L 324 408 L 323 409 L 322 408 Z M 323 405 L 324 404 L 325 405 L 325 406 L 324 407 L 323 406 Z M 324 399 L 325 400 L 325 401 L 326 402 L 326 404 L 325 405 L 324 404 L 324 403 L 323 402 L 323 400 Z M 323 396 L 324 397 L 324 399 L 323 400 L 322 399 L 322 397 Z M 322 373 L 323 374 L 323 375 L 324 376 L 324 379 L 323 380 L 323 381 L 322 382 L 322 383 L 321 384 L 321 385 L 322 386 L 322 388 L 324 390 L 324 391 L 326 393 L 326 394 L 325 395 L 325 396 L 324 397 L 323 396 L 323 393 L 322 392 L 322 391 L 320 389 L 320 388 L 319 387 L 319 383 L 320 382 L 320 380 L 321 379 L 321 374 Z M 488 223 L 488 289 L 489 290 L 489 292 L 490 293 L 490 294 L 491 295 L 491 296 L 492 297 L 492 298 L 500 306 L 501 306 L 502 307 L 503 307 L 504 308 L 505 308 L 506 309 L 508 309 L 509 310 L 512 310 L 513 311 L 534 311 L 535 310 L 539 310 L 540 309 L 542 309 L 543 308 L 544 308 L 545 307 L 546 307 L 547 306 L 548 306 L 556 298 L 556 297 L 557 296 L 557 295 L 558 294 L 558 293 L 559 292 L 559 289 L 560 288 L 560 222 L 526 222 L 526 235 L 527 236 L 527 251 L 528 252 L 528 267 L 529 268 L 529 281 L 528 282 L 527 282 L 526 283 L 522 283 L 519 280 L 519 269 L 520 268 L 520 250 L 521 249 L 521 232 L 522 231 L 522 222 L 516 222 L 515 223 L 515 228 L 514 229 L 513 228 L 513 225 L 512 224 L 512 223 Z M 511 245 L 512 246 L 512 249 L 511 250 L 510 249 L 510 246 Z M 512 231 L 513 232 L 513 237 L 514 238 L 514 242 L 513 243 L 513 244 L 512 245 L 511 244 L 511 242 L 512 241 L 511 240 L 511 232 Z M 512 230 L 513 229 L 514 230 L 513 231 Z M 384 222 L 384 243 L 385 244 L 384 245 L 384 282 L 388 282 L 389 283 L 388 284 L 384 284 L 384 312 L 386 312 L 387 313 L 386 314 L 384 314 L 384 352 L 429 352 L 429 319 L 430 318 L 431 319 L 431 321 L 432 322 L 432 324 L 433 325 L 433 326 L 434 327 L 434 328 L 436 330 L 436 331 L 438 333 L 438 334 L 447 343 L 448 343 L 450 345 L 451 345 L 452 346 L 453 346 L 454 347 L 455 347 L 456 348 L 457 348 L 458 349 L 460 349 L 461 350 L 463 350 L 464 351 L 468 351 L 469 352 L 562 352 L 562 313 L 558 313 L 557 314 L 531 314 L 530 315 L 504 315 L 503 316 L 483 316 L 482 315 L 479 315 L 478 314 L 477 314 L 475 312 L 474 312 L 472 310 L 472 309 L 470 307 L 470 306 L 469 305 L 469 304 L 468 303 L 468 302 L 467 301 L 465 301 L 464 300 L 463 300 L 461 298 L 459 298 L 458 297 L 456 297 L 455 296 L 450 296 L 449 295 L 444 295 L 443 294 L 442 294 L 441 293 L 442 292 L 444 292 L 445 293 L 448 293 L 449 292 L 452 292 L 453 293 L 455 293 L 456 294 L 457 294 L 458 295 L 459 295 L 460 296 L 462 296 L 463 297 L 464 297 L 465 298 L 467 298 L 468 299 L 469 299 L 470 300 L 471 300 L 472 299 L 472 298 L 475 295 L 475 294 L 477 292 L 477 291 L 478 290 L 478 289 L 479 288 L 479 287 L 480 286 L 480 285 L 481 284 L 481 282 L 482 281 L 482 279 L 483 278 L 483 274 L 484 273 L 484 258 L 483 257 L 483 253 L 482 252 L 482 250 L 481 249 L 481 247 L 480 246 L 480 245 L 479 244 L 479 243 L 478 242 L 478 241 L 477 240 L 477 239 L 474 236 L 474 235 L 469 230 L 468 230 L 466 228 L 465 228 L 464 227 L 463 227 L 462 226 L 461 226 L 460 225 L 459 225 L 458 224 L 455 224 L 454 223 L 450 223 L 449 222 Z M 543 327 L 548 327 L 551 330 L 549 332 L 548 332 L 547 331 L 545 331 L 545 332 L 546 332 L 547 333 L 548 333 L 551 336 L 551 338 L 547 342 L 543 342 L 540 339 L 540 338 L 542 336 L 543 337 L 544 337 L 545 338 L 546 338 L 546 337 L 544 335 L 543 335 L 540 332 L 540 330 Z M 529 327 L 534 327 L 537 330 L 537 331 L 538 332 L 538 336 L 537 337 L 537 338 L 533 342 L 530 342 L 529 341 L 528 341 L 526 339 L 526 337 L 525 336 L 525 334 L 526 333 L 526 331 L 527 330 L 527 329 Z M 533 332 L 531 332 L 531 334 L 530 335 L 531 336 L 531 337 L 532 337 L 533 336 Z M 520 327 L 521 327 L 523 329 L 523 341 L 522 342 L 518 342 L 517 341 L 517 337 L 518 336 L 518 331 L 517 330 L 517 329 L 518 328 L 519 328 Z M 506 327 L 510 327 L 511 328 L 512 328 L 514 330 L 514 331 L 515 332 L 515 335 L 514 336 L 514 337 L 513 338 L 513 339 L 511 341 L 510 341 L 509 342 L 506 342 L 505 341 L 505 328 Z M 509 332 L 509 336 L 511 334 L 511 333 L 510 333 Z M 492 327 L 494 327 L 495 328 L 495 337 L 496 337 L 497 336 L 497 329 L 499 327 L 501 327 L 502 328 L 502 337 L 501 338 L 501 340 L 500 341 L 499 341 L 498 342 L 493 342 L 491 340 L 491 339 L 490 338 L 490 332 L 491 331 L 491 328 Z M 476 327 L 487 327 L 488 328 L 488 332 L 487 333 L 486 333 L 485 334 L 484 334 L 484 341 L 483 342 L 480 342 L 479 341 L 479 333 L 476 333 L 475 332 L 475 328 Z M 465 327 L 470 327 L 473 330 L 471 332 L 470 332 L 469 331 L 467 331 L 467 332 L 468 332 L 469 333 L 470 333 L 473 336 L 473 339 L 472 340 L 471 340 L 469 342 L 465 342 L 462 339 L 462 338 L 464 336 L 465 336 L 467 338 L 468 338 L 468 336 L 467 336 L 466 335 L 465 335 L 462 332 L 462 330 Z M 404 321 L 405 320 L 407 320 L 408 321 L 407 322 L 405 322 Z M 401 320 L 402 319 L 403 319 L 404 320 L 403 321 L 402 321 Z M 398 319 L 399 318 L 400 318 L 401 319 L 400 320 L 399 320 Z M 396 318 L 397 317 L 398 317 L 399 318 L 398 319 L 397 319 Z M 395 317 L 396 316 L 397 317 L 396 318 Z M 393 316 L 394 315 L 395 316 L 394 317 Z M 389 315 L 390 314 L 393 314 L 394 315 L 393 316 L 390 316 Z M 386 314 L 387 313 L 389 313 L 390 314 L 389 315 L 387 315 Z M 439 292 L 440 291 L 441 291 L 442 292 L 441 293 L 440 293 Z M 437 291 L 438 290 L 439 291 L 438 292 Z M 435 290 L 436 289 L 437 290 L 436 291 Z M 434 289 L 435 288 L 436 289 L 435 290 Z M 433 288 L 434 287 L 435 288 L 434 289 Z M 432 287 L 433 286 L 434 287 L 433 288 Z M 431 286 L 432 285 L 433 286 L 432 287 Z M 430 285 L 431 284 L 432 285 L 431 286 Z M 429 284 L 430 283 L 431 284 L 430 285 Z M 399 280 L 398 281 L 396 281 L 395 282 L 393 282 L 392 283 L 389 283 L 388 282 L 389 281 L 391 281 L 392 280 L 394 280 L 395 279 L 398 279 Z M 398 279 L 399 278 L 401 278 L 402 279 L 401 280 L 399 280 Z M 401 278 L 402 277 L 403 277 L 404 276 L 404 275 L 405 274 L 406 275 L 406 276 L 407 276 L 408 277 L 410 277 L 411 278 L 414 278 L 415 279 L 418 279 L 419 280 L 426 280 L 428 282 L 429 282 L 430 283 L 429 284 L 427 284 L 426 283 L 420 283 L 419 282 L 416 282 L 415 281 L 413 281 L 412 280 L 409 280 L 408 279 L 402 279 Z M 403 270 L 404 269 L 405 270 L 405 271 L 404 272 L 403 271 Z M 402 268 L 403 267 L 404 268 L 404 269 L 403 270 L 402 269 Z M 401 266 L 402 265 L 403 266 L 403 267 L 402 268 L 401 267 Z M 400 264 L 401 263 L 402 264 L 401 265 Z M 399 262 L 400 261 L 401 262 L 400 263 Z M 398 261 L 399 260 L 400 261 L 399 262 Z M 422 270 L 422 260 L 423 259 L 435 259 L 436 260 L 437 260 L 441 264 L 441 265 L 440 266 L 440 267 L 437 270 L 436 270 L 435 271 L 423 271 Z M 397 260 L 398 259 L 399 260 L 398 261 Z M 396 257 L 397 256 L 398 257 L 398 258 L 397 259 L 396 258 Z M 393 253 L 394 252 L 395 252 L 397 254 L 396 255 L 395 255 Z M 392 252 L 393 251 L 394 252 L 393 253 Z M 390 250 L 391 249 L 393 251 L 392 252 L 391 252 L 390 251 Z M 389 249 L 390 248 L 391 249 L 390 250 Z M 388 247 L 389 246 L 390 247 L 389 248 Z M 386 246 L 387 245 L 388 245 L 389 246 L 388 247 L 387 247 Z M 384 245 L 385 244 L 386 244 L 387 245 L 386 246 L 385 246 Z M 270 222 L 270 298 L 271 298 L 272 297 L 274 297 L 275 296 L 277 296 L 278 295 L 280 295 L 281 296 L 287 296 L 288 297 L 287 298 L 284 298 L 283 299 L 281 299 L 280 298 L 277 298 L 276 299 L 275 299 L 274 300 L 273 300 L 272 301 L 271 301 L 270 302 L 270 353 L 344 353 L 345 352 L 351 352 L 352 351 L 354 351 L 355 350 L 357 350 L 358 349 L 359 349 L 361 347 L 362 347 L 369 340 L 369 339 L 371 337 L 371 336 L 372 335 L 372 333 L 373 332 L 373 330 L 374 329 L 374 326 L 375 325 L 375 310 L 374 309 L 374 306 L 373 305 L 373 303 L 372 302 L 372 301 L 371 300 L 371 299 L 370 298 L 370 297 L 369 296 L 369 295 L 362 288 L 361 288 L 360 287 L 359 287 L 357 285 L 356 285 L 355 284 L 356 283 L 357 283 L 360 280 L 361 280 L 363 278 L 363 277 L 366 274 L 366 273 L 367 272 L 367 271 L 368 270 L 368 269 L 369 268 L 369 267 L 370 266 L 370 264 L 371 263 L 371 248 L 370 247 L 370 245 L 369 244 L 369 242 L 368 241 L 368 240 L 367 239 L 367 238 L 366 237 L 366 236 L 362 232 L 362 231 L 361 231 L 357 227 L 356 227 L 355 226 L 354 226 L 353 225 L 352 225 L 351 224 L 349 224 L 348 223 L 345 223 L 344 222 L 294 222 L 294 224 L 295 225 L 295 227 L 296 228 L 296 230 L 297 231 L 297 232 L 298 233 L 298 235 L 299 236 L 299 245 L 298 246 L 297 245 L 297 244 L 296 243 L 296 242 L 297 241 L 297 237 L 296 236 L 296 235 L 295 234 L 295 233 L 294 232 L 294 231 L 293 230 L 293 228 L 292 227 L 292 223 L 291 222 Z M 314 306 L 315 305 L 331 305 L 333 307 L 333 308 L 334 309 L 334 311 L 331 314 L 315 314 L 314 313 Z M 293 301 L 294 300 L 295 301 L 294 302 Z M 292 300 L 293 299 L 294 300 L 293 301 Z M 291 299 L 292 298 L 293 299 L 292 300 Z M 289 298 L 290 297 L 291 298 L 290 299 Z M 336 292 L 337 291 L 338 292 L 337 293 Z M 339 290 L 340 289 L 341 290 L 340 291 Z M 341 289 L 342 288 L 346 288 L 347 289 L 346 290 L 342 290 Z M 314 261 L 315 260 L 327 260 L 330 263 L 330 267 L 328 269 L 327 269 L 326 270 L 315 270 L 314 269 Z" fill="#000000" fill-rule="evenodd"/>
</svg>
